<?xml version="1.0" standalone="no"?>
<!DOCTYPE svg PUBLIC "-//W3C//DTD SVG 20010904//EN"
 "http://www.w3.org/TR/2001/REC-SVG-20010904/DTD/svg10.dtd">
<svg version="1.0" xmlns="http://www.w3.org/2000/svg"
 width="700.000000pt" height="700.000000pt" viewBox="0 0 700.000000 700.000000"
 preserveAspectRatio="xMidYMid meet">
<metadata>
Created by potrace 1.11, written by Peter Selinger 2001-2013
</metadata>
<g transform="translate(0.000000,700.000000) scale(0.100000,-0.100000)"
fill="#000000" stroke="none">
<path d="M1300 3500 l0 -1620 1045 0 1045 0 0 230 0 230 -790 0 -790 0 0 1390
0 1390 -255 0 -255 0 0 -1620z"/>
<path d="M3950 4890 l0 -230 915 0 915 0 0 230 0 230 -915 0 -915 0 0 -230z"/>
<path d="M3950 3570 l0 -230 915 0 915 0 0 230 0 230 -915 0 -915 0 0 -230z"/>
<path d="M3950 2110 l0 -230 915 0 915 0 0 230 0 230 -915 0 -915 0 0 -230z"/>
</g>
</svg>
